<?xml version="1.0" encoding="UTF-8"?>
<svg id="Layer_2" data-name="Layer 2" xmlns="http://www.w3.org/2000/svg" viewBox="0 0 1920 1080">
  <defs>
    <style>
      .cls-1 {
        fill: #273273;
      }
    </style>
  </defs>
  <path class="cls-1" d="m1680.19,432.66c44.1-2.04,91.3-3.62,135.51-5.05,6.46-.12,12.91.06,19.37.08,2.75,0,4.97,2.23,4.96,4.97,0,0-.01,252.43-.01,252.43,0,2.74-2.22,4.96-4.96,4.96-110.12,0-391.64,0-498.07,0-38.55.56-85.84-2.01-124.52-3.25,0,0-41.51-1.71-41.51-1.71,20.85-.93,62.2-2.48,83.01-3.24,15.43-.32,47.54-1.98,62.26-1.81,6.52-.02,174.79.2,186.78.09,0,0,332.05,0,332.05,0,0,0-4.96,4.96-4.96,4.96,0,0-.01-252.43-.01-252.43,0,0,4.97,4.97,4.97,4.97-6.45.01-12.91.2-19.36.08-44.26-1.36-91.39-3.07-135.51-5.05h0Z"/>
  <path class="cls-1" d="m763.8,685.09c-92.66,2.02-192.75,3.53-285.68,4.96-10.28-.38-345.52.15-367.31-.08-2.7,0-4.89-2.19-4.89-4.89,0,0,0-252.25,0-252.25,0-2.7,2.19-4.89,4.89-4.89,222.36,0,789.38,0,1004.23,0,48.16-.55,118.82,1.08,167.37,1.78,41.44.74,125.87,2.22,167.37,3.11-42,.9-125.46,2.38-167.37,3.11-300.05,4.17-865.54.71-1171.6,1.78,0,0,4.89-4.89,4.89-4.89,0,0,0,252.25,0,252.25l-4.89-4.89c23.62-.05,355.85,0,367.31-.07,93.03,1.34,192.94,3.02,285.68,4.96h0Z"/>
  <path class="cls-1" d="m1470.56,432.88c-17.11,9.88-51.55,29.76-68.65,39.64v-79.28c17.11,9.88,51.55,29.76,68.65,39.64Z"/>
  <g>
    <g>
      <path class="cls-1" d="m175.8,497.81h58.12c23.47,0,38.87,12.95,38.87,35.22s-15.4,35.22-38.87,35.22h-45.65v52.83h-12.47v-123.27Zm12.47,60.43h42.9c17.23,0,29.15-8.29,29.15-25.21s-11.92-25.21-29.15-25.21h-42.9v50.42Z"/>
      <path class="cls-1" d="m308.35,497.81h12.47v76.31c-.18,28.66,14.3,39.54,38.32,39.54s38.68-10.88,38.5-39.54v-76.31h12.47v78.9c0,25.38-14.48,46.96-50.97,46.96s-50.78-21.58-50.78-46.96v-78.9Z"/>
      <path class="cls-1" d="m453.54,497.81h59.95c21.63,0,39.78,9.84,39.78,32.11,0,15.54-8.62,28.32-25.48,31.42v.35c17.05,2.07,22,13.12,22.92,27.8.55,8.46.55,25.38,6.05,31.6h-13.75c-3.12-4.83-3.12-13.99-3.48-19.16-1.1-17.27-2.57-36.43-26.22-35.57h-47.3v54.73h-12.47v-123.27Zm12.47,58.53h46.57c15.22,0,28.23-8.98,28.23-24s-9.53-24.52-28.23-24.52h-46.57v48.52Z"/>
      <path class="cls-1" d="m594.16,497.81h58.12c23.47,0,38.87,12.95,38.87,35.22s-15.4,35.22-38.87,35.22h-45.65v52.83h-12.47v-123.27Zm12.47,60.43h42.9c17.23,0,29.15-8.29,29.15-25.21s-11.92-25.21-29.15-25.21h-42.9v50.42Z"/>
      <path class="cls-1" d="m727.99,497.81h12.47v113.26h73.33v10.01h-85.8v-123.27Z"/>
      <path class="cls-1" d="m844.77,497.81h90.38v10.01h-77.92v44.54h72.97v10.01h-72.97v48.69h78.83v10.01h-91.3v-123.27Z"/>
      <path class="cls-1" d="m1032.03,497.81h55.37c22,0,41.98,7.25,41.98,30.21,0,12.95-9.17,24.86-22.73,27.62v.35c16.87,2.07,27.68,13.98,27.68,30.04,0,11.74-4.4,35.05-46.93,35.05h-55.37v-123.27Zm12.47,54.04h42.9c19.98,0,29.52-9.32,29.52-20.89,0-15.37-10.08-23.14-29.52-23.14h-42.9v44.03Zm0,59.22h42.9c18.52.17,34.47-5.7,34.47-25.38,0-15.71-12.65-23.83-34.47-23.83h-42.9v49.21Z"/>
      <path class="cls-1" d="m1227.46,495.22c41.07,0,61.6,30.56,61.6,64.23s-20.53,64.23-61.6,64.23-61.78-30.56-61.78-64.23,20.53-64.23,61.78-64.23Zm0,118.44c34.47,0,49.13-27.28,49.13-54.21s-14.67-54.21-49.13-54.21-49.32,27.28-49.32,54.21,14.67,54.21,49.32,54.21Z"/>
      <path class="cls-1" d="m1312.7,497.81h103.77v10.01h-45.65v113.26h-12.47v-113.26h-45.65v-10.01Z"/>
      <path class="cls-1" d="m1432.97,497.81h103.77v10.01h-45.65v113.26h-12.47v-113.26h-45.65v-10.01Z"/>
      <path class="cls-1" d="m1567.35,497.81h12.47v113.26h73.33v10.01h-85.8v-123.27Z"/>
      <path class="cls-1" d="m1684.13,497.81h90.38v10.01h-77.92v44.54h72.97v10.01h-72.97v48.69h78.83v10.01h-91.3v-123.27Z"/>
    </g>
    <g>
      <path class="cls-1" d="m175.8,497.81h58.12c23.47,0,38.87,12.95,38.87,35.22s-15.4,35.22-38.87,35.22h-45.65v52.83h-12.47v-123.27Zm12.47,60.43h42.9c17.23,0,29.15-8.29,29.15-25.21s-11.92-25.21-29.15-25.21h-42.9v50.42Z"/>
      <path class="cls-1" d="m308.35,497.81h12.47v76.31c-.18,28.66,14.3,39.54,38.32,39.54s38.68-10.88,38.5-39.54v-76.31h12.47v78.9c0,25.38-14.48,46.96-50.97,46.96s-50.78-21.58-50.78-46.96v-78.9Z"/>
      <path class="cls-1" d="m453.54,497.81h59.95c21.63,0,39.78,9.84,39.78,32.11,0,15.54-8.62,28.32-25.48,31.42v.35c17.05,2.07,22,13.12,22.92,27.8.55,8.46.55,25.38,6.05,31.6h-13.75c-3.12-4.83-3.12-13.99-3.48-19.16-1.1-17.27-2.57-36.43-26.22-35.57h-47.3v54.73h-12.47v-123.27Zm12.47,58.53h46.57c15.22,0,28.23-8.98,28.23-24s-9.53-24.52-28.23-24.52h-46.57v48.52Z"/>
      <path class="cls-1" d="m594.16,497.81h58.12c23.47,0,38.87,12.95,38.87,35.22s-15.4,35.22-38.87,35.22h-45.65v52.83h-12.47v-123.27Zm12.47,60.43h42.9c17.23,0,29.15-8.29,29.15-25.21s-11.92-25.21-29.15-25.21h-42.9v50.42Z"/>
      <path class="cls-1" d="m727.99,497.81h12.47v113.26h73.33v10.01h-85.8v-123.27Z"/>
      <path class="cls-1" d="m844.77,497.81h90.38v10.01h-77.92v44.54h72.97v10.01h-72.97v48.69h78.83v10.01h-91.3v-123.27Z"/>
      <path class="cls-1" d="m1032.03,497.81h55.37c22,0,41.98,7.25,41.98,30.21,0,12.95-9.17,24.86-22.73,27.62v.35c16.87,2.07,27.68,13.98,27.68,30.04,0,11.74-4.4,35.05-46.93,35.05h-55.37v-123.27Zm12.47,54.04h42.9c19.98,0,29.52-9.32,29.52-20.89,0-15.37-10.08-23.14-29.52-23.14h-42.9v44.03Zm0,59.22h42.9c18.52.17,34.47-5.7,34.47-25.38,0-15.71-12.65-23.83-34.47-23.83h-42.9v49.21Z"/>
      <path class="cls-1" d="m1227.46,495.22c41.07,0,61.6,30.56,61.6,64.23s-20.53,64.23-61.6,64.23-61.78-30.56-61.78-64.23,20.53-64.23,61.78-64.23Zm0,118.44c34.47,0,49.13-27.28,49.13-54.21s-14.67-54.21-49.13-54.21-49.32,27.28-49.32,54.21,14.67,54.21,49.32,54.21Z"/>
      <path class="cls-1" d="m1312.7,497.81h103.77v10.01h-45.65v113.26h-12.47v-113.26h-45.65v-10.01Z"/>
      <path class="cls-1" d="m1432.97,497.81h103.77v10.01h-45.65v113.26h-12.47v-113.26h-45.65v-10.01Z"/>
      <path class="cls-1" d="m1567.35,497.81h12.47v113.26h73.33v10.01h-85.8v-123.27Z"/>
      <path class="cls-1" d="m1684.13,497.81h90.38v10.01h-77.92v44.54h72.97v10.01h-72.97v48.69h78.83v10.01h-91.3v-123.27Z"/>
    </g>
  </g>
  <g>
    <path class="cls-1" d="m866.81,677.99h-.1v31.72h-3.61v-36.35h3.99l21.63,31.77h.1v-31.77h3.61v36.35h-4.17l-21.45-31.72Z"/>
    <path class="cls-1" d="m896.58,709.71v-36.35h24.97v2.91h-21.36v13.18h19.27v2.91h-19.27v14.46h21.86v2.91h-25.47Z"/>
    <path class="cls-1" d="m920.6,673.36h27.3v2.91h-11.86v33.45h-3.61v-33.45h-11.84v-2.91Z"/>
    <path class="cls-1" d="m978.84,704.88h.1l8.17-31.52h3.63l-9.82,36.35h-3.91l-8.68-32.11h-.1l-8.68,32.11h-3.88l-9.67-36.35h3.53l8.04,31.52h.1l8.68-31.52h3.96l8.52,31.52Z"/>
    <path class="cls-1" d="m991.19,691.59c0-5.19,1.42-9.49,4.25-12.92,2.8-3.48,6.85-5.26,12.16-5.32,5.62.06,9.84,1.82,12.64,5.27,2.77,3.42,4.16,7.74,4.16,12.95s-1.39,9.3-4.16,12.77c-2.8,3.51-6.96,5.3-12.47,5.36-5.48-.06-9.6-1.85-12.37-5.36-2.8-3.46-4.2-7.72-4.2-12.76Zm16.64,15.36c4.59-.06,7.93-1.62,10.03-4.67,2.07-2.97,3.1-6.53,3.1-10.69-.16-10.11-4.57-15.27-13.23-15.47-4.51.08-7.81,1.63-9.91,4.67-2.13,3.02-3.2,6.62-3.2,10.81,0,2.02.26,3.95.79,5.81.48,1.84,1.27,3.47,2.36,4.88,2.1,3.05,5.45,4.6,10.06,4.67Z"/>
    <path class="cls-1" d="m1031.69,693.19v16.53h-3.61v-36.35h14.68c8.44-.08,12.7,3.1,12.77,9.55.07,4.31-1.98,7.27-6.16,8.88,1.16.38,2.08.9,2.75,1.55.63.72,1.09,1.54,1.36,2.44.33.9.54,1.87.64,2.89.1,1,.14,1.99.1,2.96.1,2.66.27,4.55.51,5.67.26,1.07.61,1.76,1.05,2.07v.34h-3.98c-.35-.67-.6-1.55-.73-2.61-.17-1.05-.3-2.17-.4-3.35-.03-1.23-.08-2.39-.15-3.48-.12-1.07-.24-1.94-.38-2.61-.2-1.02-.51-1.82-.93-2.39-.44-.61-1-1.06-1.69-1.36-.66-.3-1.38-.5-2.17-.62-.42-.07-.83-.1-1.24-.1h-12.42Zm10.96-2.91c2.69,0,4.9-.58,6.61-1.73,1.73-1.15,2.62-2.99,2.65-5.5,0-1.35-.24-2.48-.73-3.38-.49-.92-1.16-1.61-2.02-2.07-1.72-.92-3.82-1.37-6.31-1.33h-11.16v14.01h10.96Z"/>
    <path class="cls-1" d="m1058.75,709.71v-36.35h3.61v18.82l19.17-18.82h4.01l-14.76,14.48,17.35,21.88h-4.31l-15.57-19.76-5.88,5.72v14.04h-3.61Z"/>
  </g>
  <path class="cls-1" d="m1794.77,66.2h0c-5.95,0-11.85.01-17.48.05,2.3-.04,4.61-.05,6.92-.04h0s10.56-.01,10.56-.01Z"/>
  <path class="cls-1" d="m1671.57,366.96v76.39h0c.19,47.74-8.24,92.68-66.81,95.83v-106.33h-106.34c-.06-30.86,21.54-57.24,50.82-64,2.93-1.58,28.64-1.9,55.7-1.87h0s66.64,0,66.64,0Z"/>
</svg>